<svg id="Layer_2" data-name="Layer 2" xmlns="http://www.w3.org/2000/svg" xmlns:xlink="http://www.w3.org/1999/xlink" viewBox="0 0 425.2 425.2"><defs><style>.cls-1{fill:#fff;stroke:#441f00;stroke-miterlimit:10;}.cls-2{fill:url(#linear-gradient);}.cls-3{fill:#3a1a00;}.cls-4{fill:url(#linear-gradient-2);}</style><linearGradient id="linear-gradient" x1="21.48" y1="248.16" x2="92.53" y2="207.97" gradientUnits="userSpaceOnUse"><stop offset="0" stop-color="#ed1c24"/><stop offset="1" stop-color="#98080c"/></linearGradient><linearGradient id="linear-gradient-2" x1="-956.32" y1="248.16" x2="-885.27" y2="207.97" gradientTransform="matrix(-1, 0, 0, 1, -552.61, 0)" xlink:href="#linear-gradient"/></defs><title>Artboard 1 copy 3</title><path class="cls-1" d="M74.91,165.69S76,152.13,74,146.28s2.07-11.06,14.36-11.49,21.2-1.63,31.29-9.31,26-21.12,39.15-21.65c0,0,10-2.16,8.19,12.38s-3.25,32.9.64,47.36,10.1,34.46,18.2,48,10.89,18.46,12.51,25.21c0,0-12.1.55-23.64,2.42s-18.51,7.2-33.34,9.15a99.62,99.62,0,0,1-29.51-.22c-4.44-.69-21.27-10.8-21.27-10.8l-15-26.21Z"/><path class="cls-2" d="M30.34,288.28s11.82,1.26,19-9.23S63,258.53,74,260.07s24.45,5.35,28.68,4.3,7-6,5.16-8.75-1.9-8.78,4-7.46c0,0,1.22-9.06-4-15.5s-19-22.37-20.46-36.64-4.73-30.24-12.75-40.36a26.88,26.88,0,0,1-11.82,14.27c-6.68,3.8-10,8-6.43,16.08s1.87,11.54-4.58,19-9.2,16.21-9.53,31.55-1.93,30.33-4.95,39.33C33.13,288.43,30.34,288.28,30.34,288.28Z"/><rect class="cls-3" x="189.54" y="83.38" width="7.28" height="234.85" transform="translate(-42.59 52.3) rotate(-13.9)"/><path class="cls-1" d="M350.28,165.69s-1-13.56.91-19.41-2.07-11.06-14.36-11.49-21.19-1.63-31.28-9.31-26-21.12-39.15-21.65c0,0-10-2.16-8.19,12.38s3.24,32.9-.64,47.36-10.1,34.46-18.2,48-10.89,18.46-12.51,25.21c0,0,12.09.55,23.64,2.42s18.51,7.2,33.34,9.15a99.63,99.63,0,0,0,29.51-.22c4.44-.69,21.26-10.8,21.26-10.8l15.05-26.21Z"/><path class="cls-4" d="M394.86,288.28s-11.82,1.26-19-9.23-13.68-20.52-24.61-19-24.45,5.35-28.68,4.3-7-6-5.17-8.75,1.91-8.78-4-7.46c0,0-1.22-9.06,4-15.5s19-22.37,20.46-36.64,4.73-30.24,12.75-40.36a26.86,26.86,0,0,0,11.81,14.27c6.69,3.8,9.95,8,6.43,16.08s-1.86,11.54,4.59,19,9.2,16.21,9.53,31.55,1.93,30.33,5,39.33C392.07,288.43,394.86,288.28,394.86,288.28Z"/><rect class="cls-3" x="228.38" y="83.38" width="7.28" height="234.85" transform="translate(409 451.48) rotate(-166.1)"/></svg>