<svg id="Layer_2" data-name="Layer 2" xmlns="http://www.w3.org/2000/svg" xmlns:xlink="http://www.w3.org/1999/xlink" viewBox="0 0 425.2 425.2"><defs><style>.cls-1,.cls-8{fill:#fff;}.cls-1{stroke:#441f00;stroke-miterlimit:10;}.cls-2{fill:url(#linear-gradient);}.cls-3{fill:#3a1a00;}.cls-4{fill:url(#linear-gradient-2);}.cls-5{fill:url(#linear-gradient-3);}.cls-6{fill:url(#linear-gradient-4);}.cls-7{fill:url(#linear-gradient-5);}</style><linearGradient id="linear-gradient" x1="21.48" y1="248.16" x2="92.53" y2="207.97" gradientUnits="userSpaceOnUse"><stop offset="0" stop-color="#ed1c24"/><stop offset="1" stop-color="#98080c"/></linearGradient><linearGradient id="linear-gradient-2" x1="-999.18" y1="248.16" x2="-928.13" y2="207.97" gradientTransform="matrix(-1, 0, 0, 1, -595.46, 0)" xlink:href="#linear-gradient"/><linearGradient id="linear-gradient-3" x1="57.99" y1="331.3" x2="117.39" y2="297.7" xlink:href="#linear-gradient"/><linearGradient id="linear-gradient-4" x1="-49.27" y1="329.08" x2="10.14" y2="295.48" gradientTransform="matrix(-1, 0, 0, 1, 317.95, 0)" xlink:href="#linear-gradient"/><linearGradient id="linear-gradient-5" x1="131.92" y1="348.33" x2="298.36" y2="254.19" xlink:href="#linear-gradient"/></defs><title>Artboard 1</title><path class="cls-1" d="M74.91,165.69S76,152.13,74,146.28s2.07-11.06,14.36-11.49,21.2-1.63,31.29-9.31,26-21.12,39.15-21.65c0,0,10-2.16,8.19,12.38s-3.25,32.9.64,47.36,10.1,34.46,18.2,48,10.89,18.46,12.51,25.21c0,0-12.1.55-23.64,2.42s-18.51,7.2-33.34,9.15a99.62,99.62,0,0,1-29.51-.22c-4.44-.69-21.27-10.8-21.27-10.8l-15-26.21Z"/><path class="cls-2" d="M30.34,288.28s11.82,1.26,19-9.23S63,258.53,74,260.07s24.45,5.35,28.68,4.3,7-6,5.16-8.75-1.9-8.78,4-7.46c0,0,1.22-9.06-4-15.5s-19-22.37-20.46-36.64-4.73-30.24-12.75-40.36a26.88,26.88,0,0,1-11.82,14.27c-6.68,3.8-10,8-6.43,16.08s1.87,11.54-4.58,19-9.2,16.21-9.53,31.55-1.93,30.33-4.95,39.33C33.13,288.43,30.34,288.28,30.34,288.28Z"/><rect class="cls-3" x="189.54" y="83.38" width="7.28" height="234.85" transform="translate(-42.59 52.3) rotate(-13.9)"/><path class="cls-1" d="M350.28,165.69s-1-13.56.91-19.41-2.07-11.06-14.36-11.49-21.19-1.63-31.28-9.31-26-21.12-39.15-21.65c0,0-10-2.16-8.19,12.38s3.24,32.9-.64,47.36-10.1,34.46-18.2,48-10.89,18.46-12.51,25.21c0,0,12.09.55,23.64,2.42s18.51,7.2,33.34,9.15a99.63,99.63,0,0,0,29.51-.22c4.44-.69,21.26-10.8,21.26-10.8l15.05-26.21Z"/><path class="cls-4" d="M394.86,288.28s-11.82,1.26-19-9.23-13.68-20.52-24.61-19-24.45,5.35-28.68,4.3-7-6-5.17-8.75,1.91-8.78-4-7.46c0,0-1.22-9.06,4-15.5s19-22.37,20.46-36.64,4.73-30.24,12.75-40.36a26.86,26.86,0,0,0,11.81,14.27c6.69,3.8,9.95,8,6.43,16.08s-1.86,11.54,4.59,19,9.2,16.21,9.53,31.55,1.93,30.33,5,39.33C392.07,288.43,394.86,288.28,394.86,288.28Z"/><rect class="cls-3" x="228.38" y="83.38" width="7.28" height="234.85" transform="translate(409 451.48) rotate(-166.1)"/><polygon class="cls-5" points="123.44 339.25 50.91 339.25 74.53 314.79 50.91 290.33 123.44 290.33 123.44 339.25"/><polygon class="cls-6" points="301.75 337.02 374.28 337.02 350.67 312.57 374.28 288.11 301.75 288.11 301.75 337.02"/><rect class="cls-7" x="87.18" y="277.61" width="253.06" height="48.91"/><path class="cls-8" d="M115.74,309.25l-4.51-5.92v5.92H108V295.84h3.27v5.89l4.47-5.89h3.84l-5.19,6.57,5.38,6.84Z"/><path class="cls-8" d="M124.55,298.46v2.71h4.37v2.52h-4.37v2.95h5v2.61h-8.22V295.84h8.22v2.62Z"/><path class="cls-8" d="M138.46,309.25l-2.79-5.06h-.79v5.06h-3.26V295.84h5.48a6,6,0,0,1,2.7.56,3.82,3.82,0,0,1,1.68,1.51,4.25,4.25,0,0,1,.55,2.15,4,4,0,0,1-.75,2.39,4.09,4.09,0,0,1-2.23,1.49l3.1,5.31Zm-3.58-7.37h2a1.87,1.87,0,0,0,1.35-.44,1.66,1.66,0,0,0,.45-1.24,1.63,1.63,0,0,0-.45-1.21,1.87,1.87,0,0,0-1.35-.43h-2Z"/><path class="cls-8" d="M152.42,306.89h-5l-.8,2.36H143.2l4.85-13.41h3.78l4.85,13.41h-3.45Zm-.84-2.53-1.66-4.91-1.64,4.91Z"/><path class="cls-8" d="M161.42,306.73h4.28v2.52h-7.54V295.84h3.26Z"/><path class="cls-8" d="M175.62,306.89h-5l-.8,2.36h-3.42l4.85-13.41H175l4.85,13.41h-3.46Zm-.84-2.53-1.66-4.91-1.65,4.91Z"/><path class="cls-8" d="M196.9,295.84l-4.64,9v4.43H189v-4.43l-4.64-9h3.71l2.6,5.62,2.57-5.62Z"/><path class="cls-8" d="M201.1,308.51a6.59,6.59,0,0,1-2.51-2.46,7.25,7.25,0,0,1,0-7.07,6.63,6.63,0,0,1,2.51-2.45,7.26,7.26,0,0,1,6.93,0,6.51,6.51,0,0,1,2.49,2.45,7.36,7.36,0,0,1,0,7.07,6.47,6.47,0,0,1-2.49,2.46,7.24,7.24,0,0,1-6.92,0Zm6-3.17a4.63,4.63,0,0,0,0-5.67,3.67,3.67,0,0,0-5.15,0,4.66,4.66,0,0,0,0,5.69,3.33,3.33,0,0,0,2.58,1.06A3.3,3.3,0,0,0,207.13,305.34Z"/><path class="cls-8" d="M216.45,295.84v8a2.67,2.67,0,0,0,.59,1.85,2.26,2.26,0,0,0,1.74.65,2.32,2.32,0,0,0,1.76-.65,2.58,2.58,0,0,0,.61-1.85v-8h3.27v8a5.72,5.72,0,0,1-.77,3,4.93,4.93,0,0,1-2.05,1.87,6.48,6.48,0,0,1-2.88.63,6.33,6.33,0,0,1-2.83-.62,4.64,4.64,0,0,1-2-1.87,6,6,0,0,1-.73-3v-8Z"/><path class="cls-8" d="M236.36,295.84v2.62H232.8v10.79h-3.26V298.46H226v-2.62Z"/><path class="cls-8" d="M249.62,295.84v13.41h-3.27v-5.52h-5.08v5.52H238V295.84h3.27v5.26h5.08v-5.26Z"/><path class="cls-8" d="M264.75,295.84v2.62h-5.46v2.83h4.09v2.54h-4.09v5.42H256V295.84Z"/><path class="cls-8" d="M273.31,309.25l-2.79-5.06h-.78v5.06h-3.27V295.84H272a6.06,6.06,0,0,1,2.71.56,3.85,3.85,0,0,1,1.67,1.51,4.25,4.25,0,0,1,.55,2.15,4,4,0,0,1-.75,2.39,4.05,4.05,0,0,1-2.23,1.49l3.1,5.31Zm-3.57-7.37h2a1.87,1.87,0,0,0,1.35-.44,1.66,1.66,0,0,0,.45-1.24,1.63,1.63,0,0,0-.45-1.21,1.87,1.87,0,0,0-1.35-.43h-2Z"/><path class="cls-8" d="M281.8,308.51a6.56,6.56,0,0,1-2.5-2.46,7.18,7.18,0,0,1,0-7.07,6.61,6.61,0,0,1,2.5-2.45,7.28,7.28,0,0,1,6.94,0,6.42,6.42,0,0,1,2.48,2.45,6.85,6.85,0,0,1,.91,3.53,6.92,6.92,0,0,1-.92,3.54,6.51,6.51,0,0,1-2.48,2.46,7.26,7.26,0,0,1-6.93,0Zm6-3.17a4.67,4.67,0,0,0,0-5.67,3.68,3.68,0,0,0-5.16,0,4.7,4.7,0,0,0,0,5.69,3.35,3.35,0,0,0,2.59,1.06A3.3,3.3,0,0,0,287.84,305.34Z"/><path class="cls-8" d="M305.94,309.25h-3.26L297.21,301v8.27h-3.27V295.84h3.27l5.47,8.31v-8.31h3.26Z"/><path class="cls-8" d="M318,295.84v2.62h-3.55v10.79h-3.27V298.46h-3.55v-2.62Z"/></svg>