<svg id="Layer_2" data-name="Layer 2" xmlns="http://www.w3.org/2000/svg" xmlns:xlink="http://www.w3.org/1999/xlink" viewBox="0 0 425.2 425.2"><defs><style>.cls-1,.cls-8{fill:#fff;}.cls-1{stroke:#441f00;stroke-miterlimit:10;}.cls-2{fill:url(#linear-gradient);}.cls-3{fill:#3a1a00;}.cls-4{fill:url(#linear-gradient-2);}.cls-5{fill:url(#linear-gradient-3);}.cls-6{fill:url(#linear-gradient-4);}.cls-7{fill:url(#linear-gradient-5);}</style><linearGradient id="linear-gradient" x1="21.48" y1="248.16" x2="92.53" y2="207.97" gradientUnits="userSpaceOnUse"><stop offset="0" stop-color="#ed1c24"/><stop offset="1" stop-color="#98080c"/></linearGradient><linearGradient id="linear-gradient-2" x1="-2010.61" y1="248.16" x2="-1939.56" y2="207.97" gradientTransform="matrix(-1, 0, 0, 1, -1606.89, 0)" xlink:href="#linear-gradient"/><linearGradient id="linear-gradient-3" x1="57.99" y1="331.3" x2="117.39" y2="297.7" xlink:href="#linear-gradient"/><linearGradient id="linear-gradient-4" x1="-1060.69" y1="329.08" x2="-1001.29" y2="295.48" gradientTransform="matrix(-1, 0, 0, 1, -693.48, 0)" xlink:href="#linear-gradient"/><linearGradient id="linear-gradient-5" x1="131.92" y1="348.33" x2="298.36" y2="254.19" xlink:href="#linear-gradient"/></defs><title>Artboard 1 copy</title><path class="cls-1" d="M74.91,165.69S76,152.13,74,146.28s2.07-11.06,14.36-11.49,21.2-1.63,31.29-9.31,26-21.12,39.15-21.65c0,0,10-2.16,8.19,12.38s-3.25,32.9.64,47.36,10.1,34.46,18.2,48,10.89,18.46,12.51,25.21c0,0-12.1.55-23.64,2.42s-18.51,7.2-33.34,9.15a99.62,99.62,0,0,1-29.51-.22c-4.44-.69-21.27-10.8-21.27-10.8l-15-26.21Z"/><path class="cls-2" d="M30.34,288.28s11.82,1.26,19-9.23S63,258.53,74,260.07s24.45,5.35,28.68,4.3,7-6,5.16-8.75-1.9-8.78,4-7.46c0,0,1.22-9.06-4-15.5s-19-22.37-20.46-36.64-4.73-30.24-12.75-40.36a26.88,26.88,0,0,1-11.82,14.27c-6.68,3.8-10,8-6.43,16.08s1.87,11.54-4.58,19-9.2,16.21-9.53,31.55-1.93,30.33-4.95,39.33C33.13,288.43,30.34,288.28,30.34,288.28Z"/><rect class="cls-3" x="189.54" y="83.38" width="7.28" height="234.85" transform="translate(-42.59 52.3) rotate(-13.9)"/><path class="cls-1" d="M350.28,165.69s-1-13.56.91-19.41-2.07-11.06-14.36-11.49-21.19-1.63-31.28-9.31-26-21.12-39.15-21.65c0,0-10-2.16-8.19,12.38s3.24,32.9-.64,47.36-10.1,34.46-18.2,48-10.89,18.46-12.51,25.21c0,0,12.09.55,23.64,2.42s18.51,7.2,33.34,9.15a99.63,99.63,0,0,0,29.51-.22c4.44-.69,21.26-10.8,21.26-10.8l15.05-26.21Z"/><path class="cls-4" d="M394.86,288.28s-11.82,1.26-19-9.23-13.68-20.52-24.61-19-24.45,5.35-28.68,4.3-7-6-5.17-8.75,1.91-8.78-4-7.46c0,0-1.22-9.06,4-15.5s19-22.37,20.46-36.64,4.73-30.24,12.75-40.36a26.86,26.86,0,0,0,11.81,14.27c6.69,3.8,9.95,8,6.43,16.08s-1.86,11.54,4.59,19,9.2,16.21,9.53,31.55,1.93,30.33,5,39.33C392.07,288.43,394.86,288.28,394.86,288.28Z"/><rect class="cls-3" x="228.38" y="83.38" width="7.28" height="234.85" transform="translate(409 451.48) rotate(-166.1)"/><polygon class="cls-5" points="123.44 339.25 50.91 339.25 74.53 314.79 50.91 290.33 123.44 290.33 123.44 339.25"/><polygon class="cls-6" points="301.75 337.02 374.28 337.02 350.67 312.57 374.28 288.11 301.75 288.11 301.75 337.02"/><rect class="cls-7" x="87.18" y="277.61" width="253.06" height="48.91"/><path class="cls-8" d="M130.44,309.25l-4.51-5.92v5.92h-3.26V295.84h3.26v5.89l4.47-5.89h3.84l-5.19,6.57,5.39,6.84Z"/><path class="cls-8" d="M139.25,298.46v2.71h4.37v2.52h-4.37v2.95h4.95v2.61H136V295.84h8.22v2.62Z"/><path class="cls-8" d="M153.16,309.25l-2.79-5.06h-.78v5.06h-3.27V295.84h5.48a6.06,6.06,0,0,1,2.71.56,3.85,3.85,0,0,1,1.67,1.51,4.25,4.25,0,0,1,.55,2.15,4,4,0,0,1-.75,2.39,4.09,4.09,0,0,1-2.23,1.49l3.1,5.31Zm-3.57-7.37h2a1.87,1.87,0,0,0,1.35-.44,1.66,1.66,0,0,0,.45-1.24A1.63,1.63,0,0,0,153,299a1.87,1.87,0,0,0-1.35-.43h-2Z"/><path class="cls-8" d="M167.13,306.89h-5l-.8,2.36H157.9l4.85-13.41h3.78l4.86,13.41h-3.46Zm-.85-2.53-1.66-4.91L163,304.36Z"/><path class="cls-8" d="M176.12,306.73h4.28v2.52h-7.54V295.84h3.26Z"/><path class="cls-8" d="M190.32,306.89h-5l-.81,2.36h-3.42l4.85-13.41h3.79l4.85,13.41h-3.46Zm-.84-2.53-1.66-4.91-1.65,4.91Z"/><path class="cls-8" d="M200.41,299a6.14,6.14,0,0,1,2.4-2.42,6.92,6.92,0,0,1,3.48-.87,6.66,6.66,0,0,1,4.09,1.26,6.08,6.08,0,0,1,2.28,3.44h-3.6a2.83,2.83,0,0,0-1.13-1.28,3.23,3.23,0,0,0-1.67-.44,3.12,3.12,0,0,0-2.45,1.05,4.67,4.67,0,0,0,0,5.62,3.12,3.12,0,0,0,2.45,1.05,3.23,3.23,0,0,0,1.67-.44,2.83,2.83,0,0,0,1.13-1.28h3.6a6.05,6.05,0,0,1-2.28,3.43,6.71,6.71,0,0,1-4.09,1.25,6.92,6.92,0,0,1-3.48-.87,6.07,6.07,0,0,1-2.4-2.42,7.18,7.18,0,0,1-.86-3.53A7.26,7.26,0,0,1,200.41,299Z"/><path class="cls-8" d="M217.54,308.51a6.59,6.59,0,0,1-2.51-2.46,7.25,7.25,0,0,1,0-7.07,6.63,6.63,0,0,1,2.51-2.45,7.26,7.26,0,0,1,6.93,0A6.51,6.51,0,0,1,227,299a7.36,7.36,0,0,1,0,7.07,6.47,6.47,0,0,1-2.49,2.46,6.87,6.87,0,0,1-3.45.88A6.94,6.94,0,0,1,217.54,308.51Zm6-3.17a4.63,4.63,0,0,0,0-5.67,3.67,3.67,0,0,0-5.15,0,4.66,4.66,0,0,0,0,5.69,3.34,3.34,0,0,0,2.59,1.06A3.29,3.29,0,0,0,223.57,305.34Z"/><path class="cls-8" d="M241.68,309.25h-3.27L233,301v8.27h-3.27V295.84H233l5.46,8.31v-8.31h3.27Z"/><path class="cls-8" d="M253,300.08a2.49,2.49,0,0,0-1-1,3.47,3.47,0,0,0-1.6-.35,3.31,3.31,0,0,0-2.54,1,4.61,4.61,0,0,0,0,5.67,3.64,3.64,0,0,0,2.76,1.05,3.36,3.36,0,0,0,2-.62,3.48,3.48,0,0,0,1.21-1.75h-4.15v-2.41h7.11v3a6.39,6.39,0,0,1-1.23,2.27,6.5,6.5,0,0,1-2.21,1.7,6.87,6.87,0,0,1-3,.65,7.14,7.14,0,0,1-3.54-.87,6.15,6.15,0,0,1-2.43-2.42,7.08,7.08,0,0,1-.87-3.53,7.15,7.15,0,0,1,.87-3.55,6.25,6.25,0,0,1,2.42-2.42,7.08,7.08,0,0,1,3.53-.87,6.9,6.9,0,0,1,4.06,1.16,5.47,5.47,0,0,1,2.19,3.23Z"/><path class="cls-8" d="M265.45,309.25l-2.79-5.06h-.79v5.06h-3.26V295.84h5.48a6,6,0,0,1,2.7.56,3.82,3.82,0,0,1,1.68,1.51,4.35,4.35,0,0,1,.55,2.15,3.94,3.94,0,0,1-.76,2.39,4,4,0,0,1-2.22,1.49l3.09,5.31Zm-3.58-7.37h2a1.87,1.87,0,0,0,1.35-.44,1.69,1.69,0,0,0,.44-1.24,1.66,1.66,0,0,0-.44-1.21,1.87,1.87,0,0,0-1.35-.43h-2Z"/><path class="cls-8" d="M274.33,298.46v2.71h4.38v2.52h-4.38v2.95h4.95v2.61h-8.22V295.84h8.22v2.62Z"/><path class="cls-8" d="M283.62,308.91a4.37,4.37,0,0,1-1.87-1.41,3.88,3.88,0,0,1-.73-2.26h3.47a1.74,1.74,0,0,0,.52,1.14,1.67,1.67,0,0,0,1.15.39,1.8,1.8,0,0,0,1.14-.33,1.14,1.14,0,0,0,.42-.93,1.09,1.09,0,0,0-.33-.82,2.66,2.66,0,0,0-.82-.54,12.14,12.14,0,0,0-1.39-.47,15.4,15.4,0,0,1-2.12-.81,3.79,3.79,0,0,1-1.41-1.18,3.28,3.28,0,0,1-.59-2.05,3.53,3.53,0,0,1,1.35-2.93,5.57,5.57,0,0,1,3.54-1.06,5.64,5.64,0,0,1,3.57,1.06,3.8,3.8,0,0,1,1.45,3h-3.53a1.42,1.42,0,0,0-.48-1,1.67,1.67,0,0,0-1.13-.37,1.39,1.39,0,0,0-.95.31,1.21,1.21,0,0,0,.24,1.92,9.54,9.54,0,0,0,1.92.79,17.08,17.08,0,0,1,2.11.84,4,4,0,0,1,1.4,1.16,3.1,3.1,0,0,1,.59,2,3.81,3.81,0,0,1-.58,2.08,4,4,0,0,1-1.69,1.49,5.78,5.78,0,0,1-2.62.56A6.81,6.81,0,0,1,283.62,308.91Z"/><path class="cls-8" d="M295.37,308.91a4.37,4.37,0,0,1-1.87-1.41,3.88,3.88,0,0,1-.73-2.26h3.47a1.74,1.74,0,0,0,.52,1.14,1.67,1.67,0,0,0,1.15.39,1.8,1.8,0,0,0,1.14-.33,1.14,1.14,0,0,0,.42-.93,1.09,1.09,0,0,0-.33-.82,2.66,2.66,0,0,0-.82-.54,12.14,12.14,0,0,0-1.39-.47,15.4,15.4,0,0,1-2.12-.81,3.79,3.79,0,0,1-1.41-1.18,3.28,3.28,0,0,1-.59-2.05,3.53,3.53,0,0,1,1.35-2.93,5.57,5.57,0,0,1,3.54-1.06,5.64,5.64,0,0,1,3.57,1.06,3.8,3.8,0,0,1,1.45,3h-3.53a1.42,1.42,0,0,0-.48-1,1.67,1.67,0,0,0-1.13-.37,1.39,1.39,0,0,0-.95.31,1.21,1.21,0,0,0,.24,1.92,9.54,9.54,0,0,0,1.92.79,17.08,17.08,0,0,1,2.11.84,4,4,0,0,1,1.4,1.16,3.1,3.1,0,0,1,.59,2,3.81,3.81,0,0,1-.58,2.08,4,4,0,0,1-1.69,1.49,5.78,5.78,0,0,1-2.62.56A6.81,6.81,0,0,1,295.37,308.91Z"/></svg>