<svg id="Layer_1" data-name="Layer 1" xmlns="http://www.w3.org/2000/svg" viewBox="0 0 1000 251"><defs><style>.cls-1{fill:#fff;}.cls-2{fill:#de0000;}</style></defs><title>Artboard 2 copy 2</title><path class="cls-1" d="M284.9,68.74V23.58h5.73v25l23.28-25h6.17L302,43.45l19.14,25.29h-6.42L298.32,46.89l-7.69,8V68.74Z"/><path class="cls-1" d="M338.08,69.37A16.71,16.71,0,0,1,331.24,68a16.24,16.24,0,0,1-5.34-3.72,16.85,16.85,0,0,1-3.5-5.46,17.41,17.41,0,0,1-1.24-6.57,17.13,17.13,0,0,1,2.16-8.52,16.61,16.61,0,0,1,14.82-8.53,15.94,15.94,0,0,1,8.75,2.37,16.71,16.71,0,0,1,5.79,6.2A17.1,17.1,0,0,1,354.74,52q0,.63,0,1.23a7.25,7.25,0,0,1-.09.92H327.07a12.34,12.34,0,0,0,1.82,5.69,11.23,11.23,0,0,0,4,3.9,10.67,10.67,0,0,0,5.35,1.41A11.48,11.48,0,0,0,344,63.65a8.18,8.18,0,0,0,3.73-4L352.58,61a12.77,12.77,0,0,1-3.21,4.32,15.69,15.69,0,0,1-5,3A17.78,17.78,0,0,1,338.08,69.37Zm-11.2-19.08h22.65a12,12,0,0,0-1.85-5.66,11.47,11.47,0,0,0-4.07-3.83,11.34,11.34,0,0,0-10.88,0,11.12,11.12,0,0,0-4,3.83A12.18,12.18,0,0,0,326.88,50.29Z"/><path class="cls-1" d="M378.53,40.43a13.75,13.75,0,0,0-7.41,2.13,11.23,11.23,0,0,0-4.55,5.69V68.74H361v-33h5.22v7.51a15.55,15.55,0,0,1,4.55-5.57,11.34,11.34,0,0,1,5.95-2.38h1.08a4.18,4.18,0,0,1,.76.06Z"/><path class="cls-1" d="M381.46,59.2a8.58,8.58,0,0,1,1.81-5.47,11.61,11.61,0,0,1,5-3.57,19.74,19.74,0,0,1,7.38-1.27,34.31,34.31,0,0,1,4.71.35,21.26,21.26,0,0,1,4.39,1v-2.4A7.79,7.79,0,0,0,402.45,42,9.1,9.1,0,0,0,396,39.79a14.19,14.19,0,0,0-5.25,1,29.5,29.5,0,0,0-5.31,2.83l-2-3.94a26.9,26.9,0,0,1,6.49-3.34,20.72,20.72,0,0,1,6.74-1.12c4.24,0,7.6,1.17,10.05,3.51s3.69,5.58,3.69,9.74V62.39a2.21,2.21,0,0,0,.42,1.49,1.91,1.91,0,0,0,1.37.53v4.33l-1.44.19c-.4,0-.73.06-1,.06a3.81,3.81,0,0,1-3-1.08,3.94,3.94,0,0,1-1.11-2.29l-.13-2.1a14.15,14.15,0,0,1-5.66,4.33,17.33,17.33,0,0,1-6.93,1.52A12.57,12.57,0,0,1,387,68a10.26,10.26,0,0,1-4.07-3.66A9.39,9.39,0,0,1,381.46,59.2Zm21.62,2.32a8.43,8.43,0,0,0,1.21-1.79,3.68,3.68,0,0,0,.45-1.55V54.09a24.32,24.32,0,0,0-4.14-1.16,22.26,22.26,0,0,0-4.26-.41,12.68,12.68,0,0,0-6.9,1.67,5.15,5.15,0,0,0-2.64,4.56,6,6,0,0,0,.86,3,6.55,6.55,0,0,0,2.54,2.43,8.43,8.43,0,0,0,4.17.94,12.18,12.18,0,0,0,5-1A10.77,10.77,0,0,0,403.08,61.52Z"/><path class="cls-1" d="M419.43,22.3H425v38c0,1.83.25,3,.76,3.39a2.8,2.8,0,0,0,1.84.64,11.07,11.07,0,0,0,2.55-.29,16.49,16.49,0,0,0,2-.6L433.1,68a17.92,17.92,0,0,1-3.3.95,17,17,0,0,1-3.37.38,7,7,0,0,1-5.12-1.85,6.9,6.9,0,0,1-1.88-5.17Z"/><path class="cls-1" d="M434.88,59.2a8.59,8.59,0,0,1,1.82-5.47,11.61,11.61,0,0,1,5-3.57,19.74,19.74,0,0,1,7.38-1.27,34.43,34.43,0,0,1,4.71.35,21.26,21.26,0,0,1,4.39,1v-2.4A7.79,7.79,0,0,0,455.88,42a9.1,9.1,0,0,0-6.49-2.17,14.16,14.16,0,0,0-5.25,1,28.84,28.84,0,0,0-5.31,2.83l-2-3.94a26.9,26.9,0,0,1,6.49-3.34A20.67,20.67,0,0,1,450,35.21q6.36,0,10.05,3.51t3.69,9.74V62.39a2.21,2.21,0,0,0,.42,1.49,1.9,1.9,0,0,0,1.36.53v4.33l-1.43.19c-.4,0-.73.06-1,.06a3.81,3.81,0,0,1-3-1.08,3.94,3.94,0,0,1-1.11-2.29l-.13-2.1a14.15,14.15,0,0,1-5.66,4.33,17.34,17.34,0,0,1-6.94,1.52A12.56,12.56,0,0,1,440.42,68a10.26,10.26,0,0,1-4.07-3.66A9.4,9.4,0,0,1,434.88,59.2Zm21.63,2.32a8.43,8.43,0,0,0,1.21-1.79,3.68,3.68,0,0,0,.45-1.55V54.09A24.32,24.32,0,0,0,454,52.93a22.26,22.26,0,0,0-4.26-.41,12.68,12.68,0,0,0-6.9,1.67,5.15,5.15,0,0,0-2.64,4.56,5.9,5.9,0,0,0,.86,3,6.55,6.55,0,0,0,2.54,2.43,8.41,8.41,0,0,0,4.17.94,12.18,12.18,0,0,0,5-1A10.77,10.77,0,0,0,456.51,61.52Z"/><path class="cls-1" d="M284.59,143.42V90.25h22.69a15.48,15.48,0,0,1,7,1.57,19.26,19.26,0,0,1,5.5,4.12,18.22,18.22,0,0,1,3.63,5.77,17.76,17.76,0,0,1,1.28,6.59,18.61,18.61,0,0,1-2.14,8.65,17.91,17.91,0,0,1-5.91,6.74,15.39,15.39,0,0,1-8.88,2.58H296.87v17.15Zm12.28-27.93h10a4.44,4.44,0,0,0,2.58-.79,5.59,5.59,0,0,0,1.91-2.43,9.53,9.53,0,0,0,.75-4,9.14,9.14,0,0,0-.82-4.16,5.47,5.47,0,0,0-2.14-2.35,5.4,5.4,0,0,0-2.73-.75h-9.59Z"/><path class="cls-1" d="M335.74,143.42V90.25h23.89a15.94,15.94,0,0,1,7,1.57,18,18,0,0,1,5.51,4.12,19.64,19.64,0,0,1,3.59,5.77,17.4,17.4,0,0,1,1.31,6.59,18,18,0,0,1-1.09,6.22,17.28,17.28,0,0,1-3,5.31,16.6,16.6,0,0,1-4.57,3.82l11.69,19.77H366.52l-10.18-17.15H348v17.15ZM348,115.49h11.31a4.14,4.14,0,0,0,2.59-.9,6.52,6.52,0,0,0,1.9-2.55,8.89,8.89,0,0,0,.75-3.74,8,8,0,0,0-.86-3.86,7,7,0,0,0-2.17-2.51,4.71,4.71,0,0,0-2.66-.89H348Z"/><path class="cls-1" d="M413.18,143.8a24.52,24.52,0,0,1-10.67-2.29,26.29,26.29,0,0,1-8.35-6.14,27.6,27.6,0,0,1-7.27-18.68,26,26,0,0,1,2-10.11A28,28,0,0,1,394.42,98a25.75,25.75,0,0,1,19.06-8.12,24.85,24.85,0,0,1,10.74,2.28,26,26,0,0,1,8.32,6.18,28.38,28.38,0,0,1,5.35,8.73,27,27,0,0,1,1.87,9.84A26.52,26.52,0,0,1,437.82,127a27.31,27.31,0,0,1-5.54,8.58,27,27,0,0,1-8.43,6A25.4,25.4,0,0,1,413.18,143.8Zm-13.86-27a18.94,18.94,0,0,0,.94,6,16.33,16.33,0,0,0,2.7,5.13,13.19,13.19,0,0,0,4.34,3.6,13,13,0,0,0,6.1,1.35,12.85,12.85,0,0,0,6.07-1.39,12.54,12.54,0,0,0,4.34-3.74,17.41,17.41,0,0,0,2.59-5.21,20.19,20.19,0,0,0,.86-5.84,18.67,18.67,0,0,0-.94-5.92,17.22,17.22,0,0,0-2.69-5.13,12.27,12.27,0,0,0-4.39-3.56,13.46,13.46,0,0,0-5.91-1.27,13.2,13.2,0,0,0-6.14,1.35,12.38,12.38,0,0,0-4.35,3.67,17.53,17.53,0,0,0-2.62,5.13A19.13,19.13,0,0,0,399.32,116.84Z"/><path class="cls-1" d="M451.37,143.42V90.25h36V101H463.65v11.38h19.63v10.11H463.65v20.89Z"/><path class="cls-1" d="M535.85,132.64v10.78H498.48V90.25h36.69V101H510.76v10.33h21v10h-21v11.31Z"/><path class="cls-1" d="M579.74,105.83a14.77,14.77,0,0,0-1.61-1.09,30.48,30.48,0,0,0-3.38-1.76,27.38,27.38,0,0,0-4.38-1.53,18.29,18.29,0,0,0-4.79-.64,8.89,8.89,0,0,0-4.87,1.12,3.63,3.63,0,0,0-1.72,3.26A3.46,3.46,0,0,0,560.3,108a11.36,11.36,0,0,0,3.78,1.85q2.48.78,6.07,1.75a48.53,48.53,0,0,1,8.84,3.3,14.7,14.7,0,0,1,5.73,4.86,14,14,0,0,1,2,7.87,16.45,16.45,0,0,1-1.61,7.54,13,13,0,0,1-4.49,5,20.39,20.39,0,0,1-6.44,2.75,32.05,32.05,0,0,1-7.38.85,41,41,0,0,1-8-.82,44.75,44.75,0,0,1-7.82-2.33,43,43,0,0,1-6.89-3.44l5.31-10.79a9.41,9.41,0,0,0,2,1.43,40.23,40.23,0,0,0,4.08,2.06,41.17,41.17,0,0,0,5.43,1.94,21.32,21.32,0,0,0,6,.86,9.3,9.3,0,0,0,5-1.05,3.3,3.3,0,0,0,1.61-2.88,3.56,3.56,0,0,0-1.69-3.09,17.79,17.79,0,0,0-4.56-2.08q-2.89-.93-6.63-2a42.54,42.54,0,0,1-8-3.39,12.15,12.15,0,0,1-4.72-4.5,13.15,13.15,0,0,1-1.54-6.62A16.25,16.25,0,0,1,549,97.65a16.64,16.64,0,0,1,7.15-5.8,24.26,24.26,0,0,1,9.82-2,28.65,28.65,0,0,1,7.26.9A43.47,43.47,0,0,1,579.74,93a41.83,41.83,0,0,1,5.31,2.77Z"/><path class="cls-1" d="M630.29,105.83a14.77,14.77,0,0,0-1.61-1.09,31.17,31.17,0,0,0-3.37-1.76,27.85,27.85,0,0,0-4.39-1.53,18.29,18.29,0,0,0-4.79-.64,8.91,8.91,0,0,0-4.87,1.12,3.65,3.65,0,0,0-1.72,3.26,3.46,3.46,0,0,0,1.31,2.79,11.36,11.36,0,0,0,3.78,1.85q2.48.78,6.07,1.75a48.53,48.53,0,0,1,8.84,3.3,14.7,14.7,0,0,1,5.73,4.86,14,14,0,0,1,2,7.87,16.45,16.45,0,0,1-1.61,7.54,13,13,0,0,1-4.49,5,20.39,20.39,0,0,1-6.44,2.75,32.05,32.05,0,0,1-7.38.85,41,41,0,0,1-8-.82,44.75,44.75,0,0,1-7.82-2.33,43.42,43.42,0,0,1-6.89-3.44L600,126.42a9.25,9.25,0,0,0,2,1.43,42.47,42.47,0,0,0,4.08,2.06,41.17,41.17,0,0,0,5.43,1.94,21.37,21.37,0,0,0,6,.86,9.28,9.28,0,0,0,5-1.05,3.3,3.3,0,0,0,1.61-2.88,3.58,3.58,0,0,0-1.68-3.09,18,18,0,0,0-4.57-2.08c-1.93-.62-4.13-1.28-6.63-2a42.54,42.54,0,0,1-8.05-3.39,12.22,12.22,0,0,1-4.72-4.5,13.15,13.15,0,0,1-1.54-6.62,16.25,16.25,0,0,1,2.66-9.48,16.67,16.67,0,0,1,7.16-5.8,24.18,24.18,0,0,1,9.81-2,28.65,28.65,0,0,1,7.26.9A43.47,43.47,0,0,1,630.29,93a41.16,41.16,0,0,1,5.31,2.77Z"/><path class="cls-1" d="M648.93,143.42V90.25h12.29v53.17Z"/><path class="cls-1" d="M699.11,143.8a24.55,24.55,0,0,1-10.67-2.29,26.29,26.29,0,0,1-8.35-6.14,27.73,27.73,0,0,1-7.27-18.68,26,26,0,0,1,2-10.11A28,28,0,0,1,680.35,98a25.75,25.75,0,0,1,19.06-8.12,24.89,24.89,0,0,1,10.75,2.28,26,26,0,0,1,8.31,6.18,28.19,28.19,0,0,1,5.35,8.73,27,27,0,0,1,1.88,9.84,26.53,26.53,0,0,1-2,10.11,27.31,27.31,0,0,1-5.54,8.58,27,27,0,0,1-8.43,6A25.4,25.4,0,0,1,699.11,143.8Zm-13.86-27a19.24,19.24,0,0,0,.94,6,16.33,16.33,0,0,0,2.7,5.13,13.19,13.19,0,0,0,4.34,3.6,13,13,0,0,0,6.1,1.35,12.85,12.85,0,0,0,6.07-1.39,12.45,12.45,0,0,0,4.34-3.74,17.41,17.41,0,0,0,2.59-5.21,20.19,20.19,0,0,0,.86-5.84,18.67,18.67,0,0,0-.94-5.92,17.22,17.22,0,0,0-2.69-5.13,12.33,12.33,0,0,0-4.38-3.56,13.5,13.5,0,0,0-5.92-1.27,13.23,13.23,0,0,0-6.14,1.35,12.38,12.38,0,0,0-4.35,3.67,17.77,17.77,0,0,0-2.62,5.13A19.13,19.13,0,0,0,685.25,116.84Z"/><path class="cls-1" d="M749.59,112.94v30.48H737.3V90.25H747l24.64,31.31V90.25h12.21v53.17h-10Z"/><path class="cls-1" d="M812,90.25h13.19l18.42,53.17H831.07l-3.61-11.9H809.91l-3.63,11.9H793.7Zm12.88,32.88-6.21-20.52-6.25,20.52Z"/><path class="cls-1" d="M853.31,143.42V90.25h12.28v42.39h25.76v10.78Z"/><path class="cls-1" d="M305.86,213.93a26,26,0,0,1-10.1-1.84,22.31,22.31,0,0,1-7.5-5,21.56,21.56,0,0,1-4.71-7.29,23.43,23.43,0,0,1-1.61-8.7,22.9,22.9,0,0,1,2.84-11.27,21.6,21.6,0,0,1,8.18-8.28,27.82,27.82,0,0,1,25.83.08,20.57,20.57,0,0,1,7.93,8.48l-13.23,4a9.21,9.21,0,0,0-3.27-3.18,8.71,8.71,0,0,0-4.45-1.15,9.09,9.09,0,0,0-5,1.45,10.31,10.31,0,0,0-3.56,4,12.69,12.69,0,0,0-1.31,5.91,13.23,13.23,0,0,0,1.31,6,9.78,9.78,0,0,0,3.61,4,9.41,9.41,0,0,0,5,1.4,9,9,0,0,0,6-2.12,8.1,8.1,0,0,0,1.91-2.2l13.14,4a19.08,19.08,0,0,1-4.66,6.07,23.44,23.44,0,0,1-7,4.15A25.47,25.47,0,0,1,305.86,213.93Z"/><path class="cls-1" d="M353.69,213.93a26.43,26.43,0,0,1-10.13-1.8,21.57,21.57,0,0,1-12.13-12.35,24.41,24.41,0,0,1,0-17.33,22.33,22.33,0,0,1,4.62-7.28,20.93,20.93,0,0,1,7.47-5,29.32,29.32,0,0,1,20.23,0,21.52,21.52,0,0,1,7.46,5,22,22,0,0,1,4.66,7.28,23.52,23.52,0,0,1,1.62,8.71,24,24,0,0,1-1.57,8.62,21.57,21.57,0,0,1-12.17,12.35A26.6,26.6,0,0,1,353.69,213.93Zm-9.92-22.77a12.78,12.78,0,0,0,1.31,5.87,10.36,10.36,0,0,0,3.52,4,9.65,9.65,0,0,0,10.14,0,10,10,0,0,0,3.52-4,14.39,14.39,0,0,0,0-11.82,10.23,10.23,0,0,0-3.52-4,9.32,9.32,0,0,0-10.05,0,10.54,10.54,0,0,0-3.56,4A12.47,12.47,0,0,0,343.77,191.16Z"/><path class="cls-1" d="M427.23,213.08H413.66V188.51q0-4.33-1.74-6.29a5.59,5.59,0,0,0-4.37-2,8.39,8.39,0,0,0-3.82,1,12.48,12.48,0,0,0-3.56,2.7,11,11,0,0,0-2.38,3.94v25.19H384.22v-44h12.22v7.53a16.18,16.18,0,0,1,4.24-4.52,18.15,18.15,0,0,1,5.85-2.76,26.27,26.27,0,0,1,7.13-.92,14.43,14.43,0,0,1,7.08,1.5,10.46,10.46,0,0,1,4.07,4,16.62,16.62,0,0,1,1.91,5.4,33.13,33.13,0,0,1,.51,5.69Z"/><path class="cls-1" d="M453.44,213.93a18.2,18.2,0,0,1-14.3-6.58,23.19,23.19,0,0,1-4-7.18,25.89,25.89,0,0,1-1.45-8.76,26.69,26.69,0,0,1,1.53-9.09,22.3,22.3,0,0,1,4.28-7.35,19.41,19.41,0,0,1,14.89-6.58,18.24,18.24,0,0,1,8.82,2.07,15.94,15.94,0,0,1,6.11,5.9v-7.3h11.79v41.23a20.25,20.25,0,0,1-3.27,11.53,21.26,21.26,0,0,1-9.08,7.53A32.17,32.17,0,0,1,455.3,232,29.57,29.57,0,0,1,443,229.67a26.88,26.88,0,0,1-8.94-6.58l7.29-7.38a18.67,18.67,0,0,0,13.91,6.2,15.74,15.74,0,0,0,6.07-1.14,10,10,0,0,0,4.45-3.55,11,11,0,0,0,1.69-6.43v-4.41a13.17,13.17,0,0,1-5.89,5.64A18.11,18.11,0,0,1,453.44,213.93Zm4.75-10.77a9,9,0,0,0,2.88-.47,10.5,10.5,0,0,0,2.63-1.27,12.23,12.23,0,0,0,2.2-2,9.33,9.33,0,0,0,1.61-2.51v-9.37a11.76,11.76,0,0,0-2.46-4.13,12.38,12.38,0,0,0-3.56-2.72,9,9,0,0,0-4.07-1,8.22,8.22,0,0,0-3.94,1,9.91,9.91,0,0,0-3.18,2.72,13.26,13.26,0,0,0-2.08,3.84,13.58,13.58,0,0,0-.72,4.46,12.4,12.4,0,0,0,.8,4.52,11.16,11.16,0,0,0,2.25,3.57,10.85,10.85,0,0,0,3.39,2.43A10.18,10.18,0,0,0,458.19,203.16Z"/><path class="cls-1" d="M518.66,180.17a24.29,24.29,0,0,0-8.91,1.57,11,11,0,0,0-5.76,4.63v26.71H490.42v-44H502.8v8.49a19.36,19.36,0,0,1,6-7,13.58,13.58,0,0,1,7.63-2.63h1.36a4.89,4.89,0,0,1,.85.08Z"/><path class="cls-1" d="M545.29,213.93a26.51,26.51,0,0,1-10.09-1.8,22.4,22.4,0,0,1-7.51-4.91,21.08,21.08,0,0,1-4.71-7.17,23,23,0,0,1-1.61-8.51A23.9,23.9,0,0,1,524.21,180a21.86,21.86,0,0,1,8.19-8.4,27.91,27.91,0,0,1,25.78,0,20.9,20.9,0,0,1,8.1,8.33A23.39,23.39,0,0,1,569,191a19.34,19.34,0,0,1-.13,2.3l-.21,2H535.79a8.74,8.74,0,0,0,5.26,7.83,11.08,11.08,0,0,0,4.58,1,12.06,12.06,0,0,0,5.81-1.44,7.42,7.42,0,0,0,3.6-3.82l11.54,3.31a18.53,18.53,0,0,1-4.75,6.07,24.2,24.2,0,0,1-7.25,4.15A26.29,26.29,0,0,1,545.29,213.93Zm-9.75-27h19.25a10,10,0,0,0-1.61-4.7,9.65,9.65,0,0,0-3.39-3.1,10.35,10.35,0,0,0-9.33,0,8.81,8.81,0,0,0-3.4,3.06A10.42,10.42,0,0,0,535.54,187Z"/><path class="cls-1" d="M592.28,213.93A32.72,32.72,0,0,1,581.21,212a25.34,25.34,0,0,1-9.2-5.55l4.75-8.48a33.06,33.06,0,0,0,7.84,4.45,20.22,20.22,0,0,0,7.25,1.48,8.87,8.87,0,0,0,4-.76,2.54,2.54,0,0,0,1.49-2.43,2.25,2.25,0,0,0-.89-1.92,10.48,10.48,0,0,0-2.59-1.3c-1.13-.42-2.54-.85-4.24-1.3q-5.08-1.74-8.48-3.29a12.8,12.8,0,0,1-5.09-3.85,9.81,9.81,0,0,1-1.7-6,13.3,13.3,0,0,1,2.29-7.73,15.06,15.06,0,0,1,6.41-5.13,24,24,0,0,1,9.88-1.84,28.8,28.8,0,0,1,9,1.44,22.53,22.53,0,0,1,8.22,4.92l-5.34,8.39a33.46,33.46,0,0,0-6.74-3.81,15.88,15.88,0,0,0-5.81-1.19,9.81,9.81,0,0,0-2.63.33,4.3,4.3,0,0,0-1.91,1.08,2.9,2.9,0,0,0-.72,2.09,2.8,2.8,0,0,0,.72,2,5.41,5.41,0,0,0,2.29,1.33c1.05.36,2.33.77,3.86,1.21a86.08,86.08,0,0,1,9.29,3.25,13.22,13.22,0,0,1,5.51,4,10.2,10.2,0,0,1,1.82,6.33,12.43,12.43,0,0,1-4.92,10.44Q600.67,213.94,592.28,213.93Z"/><path class="cls-1" d="M634.43,213.93A32.72,32.72,0,0,1,623.36,212a25.42,25.42,0,0,1-9.2-5.55l4.75-8.48a33.11,33.11,0,0,0,7.85,4.45,20.22,20.22,0,0,0,7.25,1.48,8.9,8.9,0,0,0,4-.76,2.53,2.53,0,0,0,1.48-2.43,2.25,2.25,0,0,0-.89-1.92,10.3,10.3,0,0,0-2.59-1.3c-1.13-.42-2.54-.85-4.24-1.3q-5.09-1.74-8.48-3.29a12.8,12.8,0,0,1-5.09-3.85,9.81,9.81,0,0,1-1.69-6,13.22,13.22,0,0,1,2.29-7.73,15,15,0,0,1,6.4-5.13,24,24,0,0,1,9.88-1.84,28.8,28.8,0,0,1,9,1.44,22.65,22.65,0,0,1,8.23,4.92L647,183.14a32.93,32.93,0,0,0-6.74-3.81,15.84,15.84,0,0,0-5.81-1.19,9.81,9.81,0,0,0-2.63.33,4.3,4.3,0,0,0-1.91,1.08,2.9,2.9,0,0,0-.72,2.09,2.8,2.8,0,0,0,.72,2,5.47,5.47,0,0,0,2.29,1.33c1.05.36,2.34.77,3.86,1.21a85.32,85.32,0,0,1,9.29,3.25,13.15,13.15,0,0,1,5.51,4,10.21,10.21,0,0,1,1.83,6.33,12.43,12.43,0,0,1-4.92,10.44Q642.83,213.94,634.43,213.93Z"/><path class="cls-2" d="M173.27,70.57c0,10.37.27,20-.08,29.66s2.89,17,12.83,20.31c0,8.4-.15,16.7.12,25,.06,1.62,1.72,3.19,2.64,4.77,1-1.57,2.8-3.11,2.86-4.71.29-8.1.13-16.22.13-24.91,11.52-3,13.82-11.59,13.32-22.19-.42-8.85-.09-17.73-.09-27.37,9.27,2.2,16.27,7,22.16,13.41,7.38,8,12.23,17.49,12.43,28.53.35,20.47,1,41,0,61.41-1.24,24.14-17.69,40.85-42.09,45.07-26.45,4.58-51.12-10.28-58.15-35.25a50.93,50.93,0,0,1-2-13.09c-.22-18-.47-35.94,0-53.9.54-20.26,10.25-35.08,28.52-44.08A72.63,72.63,0,0,1,173.27,70.57Z"/><path class="cls-2" d="M132.59,30h5.9c1.73,3.31,2.65,8,5.36,9.54,3.94,2.19,9.14,2.29,13.85,2.82,5.74.65,11.57.53,17.29,1.26,10.8,1.37,16.07,8,15.65,19.3h-6.83c-.45-12.38-9.54-12.4-18.83-12.47a150.44,150.44,0,0,1-16.15-1C137.62,48.1,132.53,42,132.59,30Z"/><path class="cls-2" d="M180.11,90.51c1.49-4.5,2.3-8.72,4.24-12.33,2.32-4.31,5.61-4.23,8.72-.52,4.79,5.73,4.75,21.11-.08,26.78-2.78,3.28-6.43,3.44-8.46-.49C182.39,99.83,181.54,95,180.11,90.51Z"/></svg>