<svg id="Layer_2" data-name="Layer 2" xmlns="http://www.w3.org/2000/svg" xmlns:xlink="http://www.w3.org/1999/xlink" viewBox="0 0 1844.43 425.2"><defs><style>.cls-1,.cls-8{fill:#fff;}.cls-1{stroke:#441f00;stroke-miterlimit:10;}.cls-2{fill:url(#linear-gradient);}.cls-3{fill:#3a1a00;}.cls-4{fill:url(#linear-gradient-2);}.cls-5{fill:url(#linear-gradient-3);}.cls-6{fill:url(#linear-gradient-4);}.cls-7{fill:url(#linear-gradient-5);}</style><linearGradient id="linear-gradient" x1="21.48" y1="248.16" x2="92.53" y2="207.97" gradientUnits="userSpaceOnUse"><stop offset="0" stop-color="#ed1c24"/><stop offset="1" stop-color="#98080c"/></linearGradient><linearGradient id="linear-gradient-2" x1="-2010.61" y1="248.16" x2="-1939.56" y2="207.97" gradientTransform="matrix(-1, 0, 0, 1, -1606.89, 0)" xlink:href="#linear-gradient"/><linearGradient id="linear-gradient-3" x1="57.99" y1="331.3" x2="117.39" y2="297.7" xlink:href="#linear-gradient"/><linearGradient id="linear-gradient-4" x1="-1060.69" y1="329.08" x2="-1001.29" y2="295.48" gradientTransform="matrix(-1, 0, 0, 1, -693.48, 0)" xlink:href="#linear-gradient"/><linearGradient id="linear-gradient-5" x1="131.92" y1="348.33" x2="298.36" y2="254.19" xlink:href="#linear-gradient"/></defs><title>Artboard 1 copy 2</title><path class="cls-1" d="M74.91,165.69S76,152.13,74,146.28s2.07-11.06,14.36-11.49,21.2-1.63,31.29-9.31,26-21.12,39.15-21.65c0,0,10-2.16,8.19,12.38s-3.25,32.9.64,47.36,10.1,34.46,18.2,48,10.89,18.46,12.51,25.21c0,0-12.1.55-23.64,2.42s-18.51,7.2-33.34,9.15a99.62,99.62,0,0,1-29.51-.22c-4.44-.69-21.27-10.8-21.27-10.8l-15-26.21Z"/><path class="cls-2" d="M30.34,288.28s11.82,1.26,19-9.23S63,258.53,74,260.07s24.45,5.35,28.68,4.3,7-6,5.16-8.75-1.9-8.78,4-7.46c0,0,1.22-9.06-4-15.5s-19-22.37-20.46-36.64-4.73-30.24-12.75-40.36a26.88,26.88,0,0,1-11.82,14.27c-6.68,3.8-10,8-6.43,16.08s1.87,11.54-4.58,19-9.2,16.21-9.53,31.55-1.93,30.33-4.95,39.33C33.13,288.43,30.34,288.28,30.34,288.28Z"/><rect class="cls-3" x="189.54" y="83.38" width="7.28" height="234.85" transform="translate(-42.59 52.3) rotate(-13.9)"/><path class="cls-1" d="M350.28,165.69s-1-13.56.91-19.41-2.07-11.06-14.36-11.49-21.19-1.63-31.28-9.31-26-21.12-39.15-21.65c0,0-10-2.16-8.19,12.38s3.24,32.9-.64,47.36-10.1,34.46-18.2,48-10.89,18.46-12.51,25.21c0,0,12.09.55,23.64,2.42s18.51,7.2,33.34,9.15a99.63,99.63,0,0,0,29.51-.22c4.44-.69,21.26-10.8,21.26-10.8l15.05-26.21Z"/><path class="cls-4" d="M394.86,288.28s-11.82,1.26-19-9.23-13.68-20.52-24.61-19-24.45,5.35-28.68,4.3-7-6-5.17-8.75,1.91-8.78-4-7.46c0,0-1.22-9.06,4-15.5s19-22.37,20.46-36.64,4.73-30.24,12.75-40.36a26.86,26.86,0,0,0,11.81,14.27c6.69,3.8,9.95,8,6.43,16.08s-1.86,11.54,4.59,19,9.2,16.21,9.53,31.55,1.93,30.33,5,39.33C392.07,288.43,394.86,288.28,394.86,288.28Z"/><rect class="cls-3" x="228.38" y="83.38" width="7.28" height="234.85" transform="translate(409 451.48) rotate(-166.1)"/><polygon class="cls-5" points="123.44 339.25 50.91 339.25 74.53 314.79 50.91 290.33 123.44 290.33 123.44 339.25"/><polygon class="cls-6" points="301.75 337.02 374.28 337.02 350.67 312.57 374.28 288.11 301.75 288.11 301.75 337.02"/><rect class="cls-7" x="87.18" y="277.61" width="253.06" height="48.91"/><path class="cls-8" d="M119.4,301.07l-3.69-4.85v4.85H113v-11h2.68v4.82l3.66-4.82h3.15l-4.26,5.39,4.41,5.6Z"/><path class="cls-8" d="M126.62,292.23v2.22h3.58v2.06h-3.58v2.41h4v2.15h-6.73v-11h6.73v2.15Z"/><path class="cls-8" d="M138,301.07l-2.29-4.15h-.64v4.15h-2.67v-11h4.49a4.84,4.84,0,0,1,2.21.46,3.07,3.07,0,0,1,1.37,1.24,3.4,3.4,0,0,1,.46,1.76,3.21,3.21,0,0,1-2.45,3.18l2.54,4.35Zm-2.93-6h1.66a1.54,1.54,0,0,0,1.11-.36,1.38,1.38,0,0,0,.36-1,1.34,1.34,0,0,0-.36-1,1.54,1.54,0,0,0-1.11-.36h-1.66Z"/><path class="cls-8" d="M149.45,299.13h-4.1l-.66,1.94h-2.8l4-11H149l4,11h-2.83Zm-.69-2.07-1.36-4-1.34,4Z"/><path class="cls-8" d="M156.82,299h3.51v2.07h-6.18v-11h2.67Z"/><path class="cls-8" d="M168.45,299.13h-4.1l-.66,1.94h-2.8l4-11H168l4,11h-2.83Zm-.69-2.07-1.36-4-1.34,4Z"/><path class="cls-8" d="M179.14,290.08v11h-2.67v-11Z"/><path class="cls-8" d="M189,290.08v2.15h-2.91v8.84H183.4v-8.84h-2.91v-2.15Z"/><path class="cls-8" d="M202.06,301.07l-1-1a5.76,5.76,0,0,1-3.63,1.16,5.55,5.55,0,0,1-2.21-.41,3.29,3.29,0,0,1-1.45-1.18,3.09,3.09,0,0,1-.51-1.77,3.29,3.29,0,0,1,.56-1.87,4,4,0,0,1,1.67-1.37,3.5,3.5,0,0,1-.58-1,2.71,2.71,0,0,1-.17-1,2.61,2.61,0,0,1,.4-1.42,2.8,2.8,0,0,1,1.18-1,4.34,4.34,0,0,1,1.84-.37,4,4,0,0,1,1.84.39,2.64,2.64,0,0,1,1.47,2.49h-2.52a.76.76,0,0,0-.82-.87.91.91,0,0,0-.62.21.72.72,0,0,0-.25.57,1.37,1.37,0,0,0,.21.69,4.92,4.92,0,0,0,.66.83l2.68,2.61.08-.19a2,2,0,0,0,.12-.25l.58-1h2.68l-.75,1.36a14.79,14.79,0,0,1-1,1.75l2.64,2.6Zm-2.66-2.58L197,296.12a1.75,1.75,0,0,0-1.12,1.57,1.25,1.25,0,0,0,.46,1,1.81,1.81,0,0,0,1.24.4A3.15,3.15,0,0,0,199.4,298.49Z"/><path class="cls-8" d="M217.4,295.36a3.28,3.28,0,0,1-1.35,1.28,4.81,4.81,0,0,1-2.26.48h-1.65v3.95h-2.68v-11h4.33a4.87,4.87,0,0,1,2.23.46,3.12,3.12,0,0,1,1.36,1.25,3.65,3.65,0,0,1,.45,1.83A3.51,3.51,0,0,1,217.4,295.36Zm-2.67-.72a1.56,1.56,0,0,0,0-2,1.59,1.59,0,0,0-1.14-.36h-1.45V295h1.45A1.59,1.59,0,0,0,214.73,294.64Z"/><path class="cls-8" d="M224.83,301.07l-2.29-4.15h-.64v4.15h-2.67v-11h4.49a4.84,4.84,0,0,1,2.21.46,3.07,3.07,0,0,1,1.37,1.24,3.4,3.4,0,0,1,.46,1.76,3.21,3.21,0,0,1-2.45,3.18l2.54,4.35Zm-2.93-6h1.66a1.5,1.5,0,0,0,1.1-.36,1.35,1.35,0,0,0,.37-1,1.3,1.3,0,0,0-.37-1,1.5,1.5,0,0,0-1.1-.36H221.9Z"/><path class="cls-8" d="M231.79,300.46a5.35,5.35,0,0,1-2-2,5.59,5.59,0,0,1-.76-2.91,5.52,5.52,0,0,1,.76-2.89,5.25,5.25,0,0,1,2-2,6,6,0,0,1,5.68,0,5.14,5.14,0,0,1,2,2,5.95,5.95,0,0,1,0,5.8,5.3,5.3,0,0,1-2,2,5.94,5.94,0,0,1-5.67,0Zm4.94-2.6a3.8,3.8,0,0,0,0-4.64,2.69,2.69,0,0,0-2.1-.87,2.74,2.74,0,0,0-2.12.86,3.83,3.83,0,0,0,0,4.66,2.71,2.71,0,0,0,2.12.87A2.67,2.67,0,0,0,236.73,297.86Z"/><path class="cls-8" d="M248.89,290.08v2.15h-4.48v2.31h3.35v2.08h-3.35v4.45h-2.68v-11Z"/><path class="cls-8" d="M253,292.23v2.22h3.59v2.06H253v2.41h4v2.15h-6.73v-11H257v2.15Z"/><path class="cls-8" d="M260.58,300.79a3.51,3.51,0,0,1-1.53-1.16,3.17,3.17,0,0,1-.6-1.85h2.85a1.35,1.35,0,0,0,.42.93,1.33,1.33,0,0,0,.94.32,1.5,1.5,0,0,0,.94-.27,1,1,0,0,0,.07-1.43,2.16,2.16,0,0,0-.68-.44c-.26-.11-.64-.24-1.13-.39a12.42,12.42,0,0,1-1.74-.66,3.24,3.24,0,0,1-1.16-1,2.73,2.73,0,0,1-.48-1.67,2.89,2.89,0,0,1,1.11-2.41,5.35,5.35,0,0,1,5.82,0,3.12,3.12,0,0,1,1.19,2.42h-2.89a1.15,1.15,0,0,0-.39-.84,1.4,1.4,0,0,0-.93-.3,1.17,1.17,0,0,0-.78.26,1,1,0,0,0,.2,1.57,8.38,8.38,0,0,0,1.57.64,14.74,14.74,0,0,1,1.73.69,3.38,3.38,0,0,1,1.15,1,2.55,2.55,0,0,1,.48,1.61,3.22,3.22,0,0,1-.47,1.7,3.26,3.26,0,0,1-1.39,1.22,4.63,4.63,0,0,1-2.14.46A5.62,5.62,0,0,1,260.58,300.79Z"/><path class="cls-8" d="M270.2,300.79a3.54,3.54,0,0,1-1.52-1.16,3.18,3.18,0,0,1-.61-1.85h2.85a1.36,1.36,0,0,0,.43.93,1.32,1.32,0,0,0,.93.32,1.48,1.48,0,0,0,.94-.27.91.91,0,0,0,.35-.76.88.88,0,0,0-.28-.67,2,2,0,0,0-.67-.44c-.26-.11-.64-.24-1.13-.39a12.42,12.42,0,0,1-1.74-.66,3.16,3.16,0,0,1-1.16-1,2.73,2.73,0,0,1-.48-1.67,2.89,2.89,0,0,1,1.11-2.41,4.54,4.54,0,0,1,2.89-.86,4.62,4.62,0,0,1,2.93.86,3.12,3.12,0,0,1,1.19,2.42h-2.9a1.15,1.15,0,0,0-.39-.84,1.39,1.39,0,0,0-.92-.3,1.13,1.13,0,0,0-.78.26,1,1,0,0,0,.2,1.57,8,8,0,0,0,1.56.64,14.06,14.06,0,0,1,1.73.69,3.2,3.2,0,0,1,1.15,1,2.49,2.49,0,0,1,.49,1.61,3.14,3.14,0,0,1-.48,1.7,3.29,3.29,0,0,1-1.38,1.22,4.67,4.67,0,0,1-2.15.46A5.69,5.69,0,0,1,270.2,300.79Z"/><path class="cls-8" d="M280.69,290.08v11H278v-11Z"/><path class="cls-8" d="M285,300.46a5.28,5.28,0,0,1-2.05-2,5.59,5.59,0,0,1-.76-2.91,5.52,5.52,0,0,1,.76-2.89,5.19,5.19,0,0,1,2.05-2,6,6,0,0,1,5.68,0,5.14,5.14,0,0,1,2,2,5.61,5.61,0,0,1,.75,2.89,5.69,5.69,0,0,1-.76,2.91,5.3,5.3,0,0,1-2,2,5.94,5.94,0,0,1-5.67,0Zm4.94-2.6a3.8,3.8,0,0,0,0-4.64,3,3,0,0,0-4.22,0,3.83,3.83,0,0,0,0,4.66,3,3,0,0,0,4.22,0Z"/><path class="cls-8" d="M304.76,301.07h-2.68l-4.47-6.78v6.78h-2.68v-11h2.68l4.47,6.81v-6.81h2.68Z"/><path class="cls-8" d="M313.54,299.13h-4.1l-.66,1.94H306l4-11h3.1l4,11H314.2Zm-.69-2.07-1.36-4-1.34,4Z"/><path class="cls-8" d="M320.91,299h3.51v2.07h-6.18v-11h2.67Z"/><path class="cls-8" d="M178.35,308.16a5.09,5.09,0,0,1,2-2,5.74,5.74,0,0,1,2.85-.71,5.51,5.51,0,0,1,3.35,1,5,5,0,0,1,1.87,2.82h-2.95a2.39,2.39,0,0,0-.93-1.05,2.62,2.62,0,0,0-1.37-.36,2.57,2.57,0,0,0-2,.86,3.84,3.84,0,0,0,0,4.61,2.57,2.57,0,0,0,2,.86,2.62,2.62,0,0,0,1.37-.36,2.39,2.39,0,0,0,.93-1.05h2.95a5,5,0,0,1-1.87,2.81,5.51,5.51,0,0,1-3.35,1,5.74,5.74,0,0,1-2.85-.71,5,5,0,0,1-2-2,6.36,6.36,0,0,1,0-5.8Z"/><path class="cls-8" d="M192.38,316a5.42,5.42,0,0,1-2-2,5.91,5.91,0,0,1,0-5.8,5.46,5.46,0,0,1,2-2,6,6,0,0,1,5.69,0,5.27,5.27,0,0,1,2,2,6,6,0,0,1,0,5.8,5.37,5.37,0,0,1-2,2,6,6,0,0,1-5.68,0Zm5-2.59a3.82,3.82,0,0,0,0-4.65,3,3,0,0,0-4.23,0,3.82,3.82,0,0,0,0,4.65,2.74,2.74,0,0,0,2.13.87A2.71,2.71,0,0,0,197.33,313.37Z"/><path class="cls-8" d="M212.16,316.57h-2.68L205,309.8v6.77h-2.68v-11H205l4.47,6.81v-6.81h2.68Z"/><path class="cls-8" d="M221.39,309.06a2,2,0,0,0-.85-.84,2.81,2.81,0,0,0-1.31-.29,2.69,2.69,0,0,0-2.08.86,3.24,3.24,0,0,0-.78,2.27,3.28,3.28,0,0,0,.82,2.38,3,3,0,0,0,2.26.85,2.76,2.76,0,0,0,1.67-.5,2.86,2.86,0,0,0,1-1.44h-3.39v-2h5.82v2.49a5.29,5.29,0,0,1-2.82,3.25,5.5,5.5,0,0,1-2.47.53,5.88,5.88,0,0,1-2.9-.71,5,5,0,0,1-2-2,6.28,6.28,0,0,1,0-5.8,5.05,5.05,0,0,1,2-2,5.84,5.84,0,0,1,2.89-.71,5.6,5.6,0,0,1,3.33,1,4.46,4.46,0,0,1,1.79,2.64Z"/><path class="cls-8" d="M231.63,316.57l-2.29-4.14h-.64v4.14H226v-11h4.49a5,5,0,0,1,2.21.45,3.09,3.09,0,0,1,1.37,1.25,3.38,3.38,0,0,1,.46,1.76,3.21,3.21,0,0,1-2.45,3.17l2.54,4.35Zm-2.93-6h1.66a1.54,1.54,0,0,0,1.11-.36,1.37,1.37,0,0,0,.36-1,1.34,1.34,0,0,0-.36-1,1.54,1.54,0,0,0-1.11-.36H228.7Z"/><path class="cls-8" d="M238.91,307.73V310h3.58V312h-3.58v2.41H243v2.14h-6.73v-11H243v2.14Z"/><path class="cls-8" d="M246.52,316.29a3.44,3.44,0,0,1-1.53-1.16,3.14,3.14,0,0,1-.6-1.84h2.84a1.45,1.45,0,0,0,.43.93,1.37,1.37,0,0,0,.94.32,1.5,1.5,0,0,0,.94-.27,1,1,0,0,0,.07-1.44,2.32,2.32,0,0,0-.68-.43,9.69,9.69,0,0,0-1.13-.4,11.37,11.37,0,0,1-1.74-.65,3.35,3.35,0,0,1-1.16-1,2.74,2.74,0,0,1-.48-1.68,2.88,2.88,0,0,1,1.11-2.4,4.54,4.54,0,0,1,2.89-.87,4.6,4.6,0,0,1,2.93.87,3.1,3.1,0,0,1,1.19,2.42h-2.89a1.16,1.16,0,0,0-.4-.84,1.38,1.38,0,0,0-.92-.31,1.17,1.17,0,0,0-.78.26,1,1,0,0,0,.2,1.58,9.12,9.12,0,0,0,1.57.64,14.74,14.74,0,0,1,1.73.69,3.24,3.24,0,0,1,1.15.95,2.59,2.59,0,0,1,.48,1.61,3.15,3.15,0,0,1-.48,1.71,3.3,3.3,0,0,1-1.38,1.22,4.78,4.78,0,0,1-2.14.45A5.62,5.62,0,0,1,246.52,316.29Z"/><path class="cls-8" d="M256.14,316.29a3.44,3.44,0,0,1-1.53-1.16,3.14,3.14,0,0,1-.6-1.84h2.85a1.27,1.27,0,0,0,1.36,1.25,1.48,1.48,0,0,0,.94-.27,1,1,0,0,0,.07-1.44,2.27,2.27,0,0,0-.67-.43,10.74,10.74,0,0,0-1.14-.4,10.82,10.82,0,0,1-1.73-.65,3.26,3.26,0,0,1-1.16-1,2.68,2.68,0,0,1-.49-1.68,2.88,2.88,0,0,1,1.11-2.4,5.32,5.32,0,0,1,5.83,0,3.13,3.13,0,0,1,1.19,2.42h-2.9a1.12,1.12,0,0,0-.39-.84,1.4,1.4,0,0,0-.92-.31,1.17,1.17,0,0,0-.79.26,1,1,0,0,0-.29.75.92.92,0,0,0,.5.83,8.62,8.62,0,0,0,1.56.64,14.06,14.06,0,0,1,1.73.69,3.16,3.16,0,0,1,1.15.95,2.53,2.53,0,0,1,.49,1.61,3.15,3.15,0,0,1-.48,1.71,3.33,3.33,0,0,1-1.39,1.22,4.76,4.76,0,0,1-2.14.45A5.69,5.69,0,0,1,256.14,316.29Z"/><path class="cls-8" d="M485.69,225.5l-24.33-31.95V225.5H443.74V153.15h17.62v31.74l24.12-31.74h20.71l-28,35.45,29.07,36.9Z"/><path class="cls-8" d="M533.2,167.27V181.9h23.6v13.61H533.2v15.87h26.69V225.5H515.58V153.15h44.31v14.12Z"/><path class="cls-8" d="M608.22,225.5l-15-27.31H589V225.5H571.33V153.15h29.58a32.59,32.59,0,0,1,14.58,3,20.55,20.55,0,0,1,9,8.19,22.78,22.78,0,0,1,3,11.6,21.55,21.55,0,0,1-4.07,12.88q-4.08,5.67-12,8l16.7,28.65ZM589,185.71h10.93c3.22,0,5.65-.78,7.26-2.36a8.94,8.94,0,0,0,2.43-6.7,8.67,8.67,0,0,0-2.43-6.5c-1.61-1.57-4-2.36-7.26-2.36H589Z"/><path class="cls-8" d="M683.57,212.72h-27l-4.33,12.78H633.79L660,153.15h20.42l26.17,72.35H687.9ZM679,199.12l-9-26.49-8.86,26.49Z"/><path class="cls-8" d="M732.11,211.89H755.2V225.5H714.49V153.15h17.62Z"/><path class="cls-8" d="M808.69,212.72h-27l-4.32,12.78H758.91l26.18-72.35H805.5l26.18,72.35H813Zm-4.54-13.6-9-26.49-8.86,26.49Z"/><path class="cls-8" d="M879.08,153.15V225.5H861.46V153.15Z"/><path class="cls-8" d="M943.92,153.15v14.12H924.74V225.5H907.12V167.27H888V153.15Z"/><path class="cls-8" d="M1030,225.5l-6.69-6.49q-10,7.62-23.92,7.62a35.75,35.75,0,0,1-14.53-2.72,21.66,21.66,0,0,1-9.53-7.73A20.59,20.59,0,0,1,972,204.47a21.78,21.78,0,0,1,3.66-12.31,26.43,26.43,0,0,1,11-9,23,23,0,0,1-3.81-6.34,18.76,18.76,0,0,1-1.13-6.65,17.17,17.17,0,0,1,2.67-9.37,18.11,18.11,0,0,1,7.78-6.65,28,28,0,0,1,12.12-2.43,25.84,25.84,0,0,1,12.06,2.58,17.66,17.66,0,0,1,7.42,6.91,17.36,17.36,0,0,1,2.26,9.48h-16.59a5.54,5.54,0,0,0-1.39-4.28,5.39,5.39,0,0,0-4-1.49,6,6,0,0,0-4.12,1.44,4.7,4.7,0,0,0-1.65,3.71,8.89,8.89,0,0,0,1.39,4.53,30.65,30.65,0,0,0,4.38,5.47l17.62,17.21c.14-.34.33-.76.57-1.24s.5-1,.78-1.64l3.81-6.5h17.62l-4.94,9a85.5,85.5,0,0,1-6.4,11.54l17.42,17.11Zm-17.52-17-16.08-15.56Q989,196.76,989,203.24a8.31,8.31,0,0,0,3,6.54,12.12,12.12,0,0,0,8.19,2.63A20.19,20.19,0,0,0,1012.45,208.49Z"/><path class="cls-8" d="M491.69,291.29a19.93,19.93,0,0,1-8.36,7.92c-3.77,2-8.43,3-14,3H459v24.51H442.38V258.47h26.94a30.65,30.65,0,0,1,13.81,2.82,19.39,19.39,0,0,1,8.47,7.78,22.7,22.7,0,0,1,2.81,11.38A21.92,21.92,0,0,1,491.69,291.29Zm-16.53-4.52a9.75,9.75,0,0,0,0-12.65c-1.56-1.48-3.93-2.23-7.1-2.23H459V289h9.05Q472.82,289,475.16,286.77Z"/><path class="cls-8" d="M537.89,326.74,523.69,301h-4v25.77H503.07V258.47H531a30.71,30.71,0,0,1,13.75,2.82,19.38,19.38,0,0,1,8.52,7.73A21.56,21.56,0,0,1,556.08,280a20.36,20.36,0,0,1-3.84,12.15,20.69,20.69,0,0,1-11.34,7.59l15.76,27ZM519.7,289.2H530c3,0,5.33-.74,6.86-2.24a8.45,8.45,0,0,0,2.28-6.32,8.2,8.2,0,0,0-2.28-6.13c-1.53-1.49-3.81-2.23-6.86-2.23H519.7Z"/><path class="cls-8" d="M581.12,323a33.39,33.39,0,0,1-12.74-12.5,36.76,36.76,0,0,1,0-36A33.52,33.52,0,0,1,581.12,262a37.1,37.1,0,0,1,35.31,0,32.91,32.91,0,0,1,12.64,12.44,37.28,37.28,0,0,1-.05,36A33.2,33.2,0,0,1,616.38,323a37,37,0,0,1-35.26,0Zm30.73-16.15q4.92-5.44,4.92-14.39T611.85,278q-4.9-5.4-13.08-5.39t-13.18,5.34q-4.9,5.35-4.91,14.5t4.91,14.44q4.9,5.4,13.18,5.4T611.85,306.8Z"/><path class="cls-8" d="M687.37,258.47v13.32H659.55v14.4h20.82v12.93H659.55v27.62H642.93V258.47Z"/><path class="cls-8" d="M712.75,271.79V285.6H735v12.84H712.75v15h25.19v13.33H696.13V258.47h41.81v13.32Z"/><path class="cls-8" d="M760,325a21.87,21.87,0,0,1-9.49-7.2,19.69,19.69,0,0,1-3.74-11.48h17.7a8.61,8.61,0,0,0,2.63,5.79,8.43,8.43,0,0,0,5.84,2,9.11,9.11,0,0,0,5.83-1.7,5.69,5.69,0,0,0,2.14-4.71,5.59,5.59,0,0,0-1.71-4.19,13.56,13.56,0,0,0-4.18-2.72,68.09,68.09,0,0,0-7-2.43,76.29,76.29,0,0,1-10.79-4.08,20,20,0,0,1-7.2-6q-3-4-3-10.4,0-9.54,6.91-14.93t18-5.39q11.29,0,18.19,5.39t7.39,15h-18a7.05,7.05,0,0,0-2.43-5.2,8.58,8.58,0,0,0-5.74-1.9,7.14,7.14,0,0,0-4.86,1.61,5.8,5.8,0,0,0-1.85,4.62,5.72,5.72,0,0,0,3.11,5.15,50.78,50.78,0,0,0,9.73,4,91.17,91.17,0,0,1,10.75,4.27,20.5,20.5,0,0,1,7.14,5.93,15.91,15.91,0,0,1,3,10,19.62,19.62,0,0,1-3,10.6,20.79,20.79,0,0,1-8.61,7.59,29.43,29.43,0,0,1-13.32,2.82A35.12,35.12,0,0,1,760,325Z"/><path class="cls-8" d="M819.83,325a21.9,21.9,0,0,1-9.48-7.2,19.62,19.62,0,0,1-3.75-11.48h17.71a8.6,8.6,0,0,0,2.62,5.79,8.46,8.46,0,0,0,5.84,2,9.07,9.07,0,0,0,5.83-1.7,6.14,6.14,0,0,0,.44-8.9,13.8,13.8,0,0,0-4.18-2.72,69,69,0,0,0-7.05-2.43,77,77,0,0,1-10.8-4.08,20.12,20.12,0,0,1-7.2-6q-3-4-3-10.4,0-9.54,6.9-14.93t18-5.39q11.28,0,18.18,5.39t7.39,15h-18a7.05,7.05,0,0,0-2.43-5.2,8.58,8.58,0,0,0-5.74-1.9,7.18,7.18,0,0,0-4.86,1.61A5.8,5.8,0,0,0,824.4,277a5.71,5.71,0,0,0,3.12,5.15,50.35,50.35,0,0,0,9.72,4A90.47,90.47,0,0,1,848,290.46a20.62,20.62,0,0,1,7.15,5.93,15.91,15.91,0,0,1,3,10,19.7,19.7,0,0,1-3,10.6,20.79,20.79,0,0,1-8.61,7.59,29.46,29.46,0,0,1-13.32,2.82A35.14,35.14,0,0,1,819.83,325Z"/><path class="cls-8" d="M885,258.47v68.27H868.37V258.47Z"/><path class="cls-8" d="M911.69,323A33.39,33.39,0,0,1,899,310.45a36.83,36.83,0,0,1,0-36A33.52,33.52,0,0,1,911.69,262,37.1,37.1,0,0,1,947,262a32.91,32.91,0,0,1,12.64,12.44,37.28,37.28,0,0,1,0,36A33.13,33.13,0,0,1,947,323a37,37,0,0,1-35.26,0Zm30.73-16.15q4.92-5.44,4.92-14.39T942.42,278q-4.9-5.4-13.07-5.39t-13.18,5.34q-4.92,5.35-4.91,14.5t4.91,14.44q4.91,5.4,13.18,5.4T942.42,306.8Z"/><path class="cls-8" d="M1034.57,326.74h-16.63l-27.81-42.11v42.11H973.5V258.47h16.63l27.81,42.3v-42.3h16.63Z"/><path class="cls-8" d="M1089.14,314.68h-25.49l-4.08,12.06h-17.41l24.7-68.27h19.26l24.71,68.27h-17.61Zm-4.28-12.84-8.46-25-8.36,25Z"/><path class="cls-8" d="M1134.94,313.9h21.79v12.84h-38.41V258.47h16.62Z"/><path class="cls-8" d="M1187.3,275.42a31.26,31.26,0,0,1,12.21-12.35,35.43,35.43,0,0,1,17.75-4.43q12.15,0,20.8,6.42a30.81,30.81,0,0,1,11.58,17.5h-18.28a14.85,14.85,0,0,0-5.79-6.51,16.29,16.29,0,0,0-8.51-2.24,15.89,15.89,0,0,0-12.45,5.35q-4.77,5.35-4.76,14.3t4.76,14.29a15.86,15.86,0,0,0,12.45,5.36,16.29,16.29,0,0,0,8.51-2.24,14.83,14.83,0,0,0,5.79-6.52h18.28a30.54,30.54,0,0,1-11.58,17.46q-8.65,6.38-20.8,6.37a35.53,35.53,0,0,1-17.75-4.42,31.35,31.35,0,0,1-12.21-12.31,39.24,39.24,0,0,1,0-36Z"/><path class="cls-8" d="M1274.49,323.9a33.39,33.39,0,0,1-12.74-12.5,36.74,36.74,0,0,1,0-36,33.47,33.47,0,0,1,12.74-12.45,37.1,37.1,0,0,1,35.31,0,32.86,32.86,0,0,1,12.64,12.45,37.26,37.26,0,0,1,0,36,33.2,33.2,0,0,1-12.64,12.5,37,37,0,0,1-35.26,0Zm30.73-16.15q4.92-5.43,4.92-14.39t-4.92-14.44q-4.9-5.4-13.08-5.4T1279,278.87q-4.9,5.36-4.9,14.49t4.9,14.44q4.92,5.4,13.18,5.4T1305.22,307.75Z"/><path class="cls-8" d="M1397.37,327.69h-16.63l-27.82-42.11v42.11H1336.3V259.42h16.62l27.82,42.31V259.42h16.63Z"/><path class="cls-8" d="M1454.75,281a12.48,12.48,0,0,0-5.29-5.21,17.46,17.46,0,0,0-8.12-1.79q-8.07,0-12.94,5.3t-4.86,14.15q0,9.44,5.1,14.74t14.06,5.29a17,17,0,0,0,10.36-3.11,17.61,17.61,0,0,0,6.17-8.94h-21.1V289.18h36.18v15.47a33,33,0,0,1-17.51,20.22,34.65,34.65,0,0,1-15.37,3.31,36.47,36.47,0,0,1-18-4.42A31.57,31.57,0,0,1,1411,311.45a38.92,38.92,0,0,1,0-36,31.51,31.51,0,0,1,12.31-12.35,36,36,0,0,1,18-4.43q12.26,0,20.66,5.93A28,28,0,0,1,1473.14,281Z"/><path class="cls-8" d="M1518.36,327.69l-14.2-25.77h-4v25.77h-16.63V259.42h27.92a30.71,30.71,0,0,1,13.75,2.82,19.49,19.49,0,0,1,8.52,7.73,21.56,21.56,0,0,1,2.82,10.94,20.39,20.39,0,0,1-3.84,12.16,20.62,20.62,0,0,1-11.34,7.58l15.76,27Zm-18.19-37.54h10.31c3,0,5.33-.74,6.86-2.23a8.48,8.48,0,0,0,2.28-6.33,8.22,8.22,0,0,0-2.28-6.13c-1.53-1.48-3.81-2.23-6.86-2.23h-10.31Z"/><path class="cls-8" d="M1563.58,272.75v13.8h22.28v12.84h-22.28v15h25.19v13.32H1547V259.42h41.82v13.33Z"/><path class="cls-8" d="M1610.85,326a21.92,21.92,0,0,1-9.48-7.21,19.59,19.59,0,0,1-3.75-11.47h17.71a8.6,8.6,0,0,0,2.62,5.79,8.46,8.46,0,0,0,5.84,2,9.13,9.13,0,0,0,5.83-1.7,5.7,5.7,0,0,0,2.14-4.72,5.6,5.6,0,0,0-1.7-4.18,13.8,13.8,0,0,0-4.18-2.72,68.55,68.55,0,0,0-7.05-2.44,75.73,75.73,0,0,1-10.8-4.08,20,20,0,0,1-7.2-6q-3-4-3-10.41,0-9.52,6.9-14.93t18-5.39q11.28,0,18.18,5.39t7.39,15h-18a7,7,0,0,0-2.43-5.2,8.53,8.53,0,0,0-5.74-1.9,7.13,7.13,0,0,0-4.86,1.61,5.8,5.8,0,0,0-1.85,4.62,5.72,5.72,0,0,0,3.12,5.15,50.45,50.45,0,0,0,9.72,4,88.62,88.62,0,0,1,10.75,4.28,20.62,20.62,0,0,1,7.15,5.93,15.87,15.87,0,0,1,3,10,19.72,19.72,0,0,1-3,10.6,20.7,20.7,0,0,1-8.61,7.58,29.46,29.46,0,0,1-13.32,2.82A35.14,35.14,0,0,1,1610.85,326Z"/><path class="cls-8" d="M1670.66,326a21.8,21.8,0,0,1-9.48-7.21,19.59,19.59,0,0,1-3.75-11.47h17.7a8.61,8.61,0,0,0,2.63,5.79,8.44,8.44,0,0,0,5.84,2,9.15,9.15,0,0,0,5.83-1.7,5.7,5.7,0,0,0,2.14-4.72,5.6,5.6,0,0,0-1.7-4.18,13.8,13.8,0,0,0-4.18-2.72,68.55,68.55,0,0,0-7-2.44,75.27,75.27,0,0,1-10.8-4.08,19.91,19.91,0,0,1-7.2-6q-3-4-3-10.41,0-9.52,6.9-14.93t18-5.39q11.3,0,18.19,5.39t7.39,15h-18a7,7,0,0,0-2.43-5.2,8.53,8.53,0,0,0-5.74-1.9,7.09,7.09,0,0,0-4.86,1.61,5.8,5.8,0,0,0-1.85,4.62,5.73,5.73,0,0,0,3.11,5.15,50.88,50.88,0,0,0,9.73,4,88.62,88.62,0,0,1,10.75,4.28,20.62,20.62,0,0,1,7.15,5.93,15.93,15.93,0,0,1,3,10,19.64,19.64,0,0,1-3,10.6,20.58,20.58,0,0,1-8.61,7.58,29.4,29.4,0,0,1-13.32,2.82A35.12,35.12,0,0,1,1670.66,326Z"/></svg>